<?xml version="1.0" encoding="UTF-8" standalone="no"?>
<svg
   xmlns:dc="http://purl.org/dc/elements/1.1/"
   xmlns:cc="http://creativecommons.org/ns#"
   xmlns:rdf="http://www.w3.org/1999/02/22-rdf-syntax-ns#"
   xmlns:svg="http://www.w3.org/2000/svg"
   xmlns="http://www.w3.org/2000/svg"
   id="svg8"
   version="1.1"
   viewBox="0 0 114.55764 105.98033"
   height="105.98032mm"
   width="114.55764mm">
  <defs
     id="defs2" />
  <metadata
     id="metadata5">
    <rdf:RDF>
      <cc:Work
         rdf:about="">
        <dc:format>image/svg+xml</dc:format>
        <dc:type
           rdf:resource="http://purl.org/dc/dcmitype/StillImage" />
        <dc:title></dc:title>
      </cc:Work>
    </rdf:RDF>
  </metadata>
  <g
     transform="translate(-32.332292,-36.989961)"
     style="display:none"
     id="layer2">
    <rect
       y="0.24355356"
       x="0.1309357"
       height="176.38889"
       width="176.38889"
       id="rect60"
       style="fill:#2a2a2a;fill-opacity:1;stroke-width:0.093;stroke-miterlimit:4;stroke-dasharray:none" />
  </g>
  <g
     transform="translate(-32.332292,-36.989961)"
     id="layer1">
    <path
       id="path24"
       d="M 32.466053,37.122252 H 108.7715 c 33.00759,7.529806 35.47987,28.34425 37.95228,39.154983 l -26.32604,-0.13363 c -3.51718,-7.362456 -7.59474,-14.30462 -19.51068,-15.368 l 0.0668,57.262495 c 10.25964,-2.03476 17.06765,-7.52114 19.84476,-17.03842 l 25.92515,0.46772 c -8.15763,39.87467 -28.53712,41.89905 -74.768644,41.29314 L 72.155579,108.21595 37.276906,108.34959 37.14327,84.028055 H 72.422848 L 72.155579,61.176509 32.733325,61.310145 Z"
       style="fill:none;stroke:#000000;stroke-width:0.264583px;stroke-linecap:butt;stroke-linejoin:miter;stroke-opacity:1" />
    <path
       id="path26"
       d="m 42.929504,46.960802 v 2.645831 l 42.286088,0.283482 V 94.207827 H 47.654205 v 2.504088 l 37.750375,-0.0473 -2e-6,34.726575 18.138112,0.0807 c 8.97505,-0.0398 22.89335,-10.77693 28.44746,-20.68036 l -3.1183,-0.0554 c -5.53025,8.13906 -13.94121,16.96098 -25.32441,18.23735 l -15.402532,0.0554 -0.377978,-79.375003 14.92419,-0.0597 c 10.03686,0.201405 21.26153,8.943415 26.32606,16.460004 l 2.82728,-0.0334 C 126.27752,59.16058 115.49275,47.159229 102.82476,47.15154 Z"
       style="fill:none;stroke:#000000;stroke-width:0.264583px;stroke-linecap:butt;stroke-linejoin:miter;stroke-opacity:1" />
    <path
       transform="matrix(0.26458333,0,0,0.26458333,32.332292,36.989961)"
       id="path958"
       d="m 156.47777,399.07884 -5.97845,-0.19932 0.37191,-65.21323 0.3719,-65.21323 -65.988028,0.26205 -65.988023,0.26205 v -34.451 c 0,-18.94805 -0.149786,-39.26062 -0.332857,-45.13904 l -0.332858,-10.68804 h 66.813933 66.813933 l -0.32129,-36.49176 c -0.17671,-20.07047 -0.45995,-39.87776 -0.62942,-44.0162 L 150.97039,90.666675 76.592852,90.929259 2.2153184,91.191844 1.897376,52.996839 C 1.7225077,31.989583 1.4447521,11.790313 1.2801414,8.1095695 L 0.98084918,1.4173089 H 145.33047 289.68009 l 8.84002,2.3033118 c 17.16572,4.4726162 31.63135,9.8005373 46.01609,16.9484613 17.98438,8.936623 31.44107,18.612822 43.96284,31.612014 18.02702,18.714338 29.80285,41.196672 37.3795,71.364674 1.69651,6.755 5.53151,23.91745 5.37343,24.04726 -0.0523,0.043 -22.09036,-0.042 -48.97335,-0.18893 l -48.87816,-0.2671 -4.05565,-7.94949 C 315.37678,111.90876 300.1627,98.363573 276.3509,92.106708 270.98833,90.697621 262.92383,89.305702 260.1045,89.302611 l -1.85174,-0.002 0.27757,108.717669 c 0.15266,59.79472 0.35396,108.80542 0.44734,108.91269 0.28326,0.32537 6.05051,-0.93362 11.74371,-2.56368 31.91075,-9.13652 52.5042,-27.9162 62.75774,-57.23035 l 1.41333,-4.04061 2.6753,-0.1661 c 2.67793,-0.16626 93.48233,1.40627 93.69871,1.62265 0.0631,0.0631 -0.67594,3.62506 -1.64238,7.91541 -14.60581,64.84025 -39.36962,103.06758 -79.95233,123.42057 -26.91906,13.50042 -59.49829,20.01306 -112.7168,22.5323 -11.2147,0.53087 -69.89687,1.01046 -80.47718,0.6577 z m 123.66725,-42.48592 c 14.91398,-3.24066 32.7415,-12.33282 50.24904,-25.62735 18.74881,-14.2371 36.71139,-33.82092 46.19771,-50.36735 l 1.37545,-2.39911 h -6.83212 -6.83212 l -3.15909,4.41941 c -8.22161,11.50164 -16.40968,21.10961 -25.50955,29.93317 -19.21907,18.6355 -40.17668,30.07035 -61.55628,33.5862 -3.63736,0.59815 -10.32365,0.74793 -33.4613,0.74956 l -28.91562,0.002 -1.2e-4,-5.42957 c -3e-4,-13.43138 -0.99415,-207.97533 -1.26834,-248.275732 l -0.3052,-44.856259 31.97529,0.194637 c 30.84403,0.18775 32.15209,0.234403 36.97251,1.318664 18.43854,4.147392 36.67888,13.379974 54.60178,27.637404 10.03563,7.983205 23.12381,21.557812 29.53828,30.636046 l 1.69515,2.39911 h 6.22783 c 3.42531,0 6.22784,-0.14376 6.22784,-0.31947 0,-0.63457 -12.16283,-14.740693 -18.75918,-21.756395 C 334.45556,62.7511 310.28919,46.438686 287.68595,40.565869 276.74561,37.723328 278.80623,37.790562 194.42085,37.522817 151.56123,37.386829 99.163832,37.165727 77.982196,37.031479 L 39.47013,36.787394 v 5.733786 5.733786 l 31.693536,0.318636 c 17.431445,0.17525 53.342364,0.463498 79.802054,0.64055 l 48.10851,0.321914 v 83.016794 83.01679 H 128.11102 57.147799 v 5.44011 5.44012 l 71.468291,-0.19613 71.46829,-0.19613 v 65.71452 65.71451 l 25.12755,0.16718 c 40.53974,0.26971 49.61612,0.0944 54.93309,-1.06091 z"
       style="fill:#ffffff;fill-opacity:1;stroke-width:0.177532;stroke-miterlimit:4;stroke-dasharray:none" />
  </g>
</svg>
